<?xml version="1.0" encoding="utf-8"?>
<!-- Generator: Adobe Illustrator 21.0.0, SVG Export Plug-In . SVG Version: 6.00 Build 0)  -->
<svg version="1.1" id="Layer_1" xmlns="http://www.w3.org/2000/svg" xmlns:xlink="http://www.w3.org/1999/xlink" x="0px" y="0px"
	 width="64px" height="64px" viewBox="0 0 64 64" style="enable-background:new 0 0 64 64;" xml:space="preserve">
<style type="text/css">
	.st0{fill:#B9B9B9;}
	.st1{fill:#FFFFFF;}
	.st2{fill:#B8F483;}
	.st3{fill:#99A8AE;}
	.st4{fill:#6E8189;}
</style>
<path d="M4,4.31c19.33,8.01,38.67-8.01,58,0c0,11.79,0,23.58,0,35.37c-19.33-8.01-38.67,8.01-58,0C4,27.9,4,16.1,4,4.31z"/>
<path class="st0" d="M4,9.37c19.33,8.01,38.67-8.01,58,0c0,8.42,0,16.85,0,25.27c-19.33-8.01-38.67,8.01-58,0
	C4,26.21,4,17.79,4,9.37z"/>
<path class="st1" d="M4,14.42c19.33,8.01,38.67-8.01,58,0c0,5.05,0,10.11,0,15.16c-19.33-8.01-38.67,8.01-58,0
	C4,24.53,4,19.47,4,14.42z"/>
<path class="st2" d="M4,19.47c19.33,8.01,38.67-8.01,58,0c0,1.68,0,3.37,0,5.05c-19.33-8.01-38.67,8.01-58,0
	C4,22.84,4,21.16,4,19.47z"/>
<path class="st3" d="M2,4.12V62l4,0V4.12C6,1.29,2,1.29,2,4.12z"/>
<path class="st4" d="M2.99,2.27c0.57,0.32,1,0.91,1,1.82L4,61.97l2,0V4.09C6,2.18,4.18,1.6,2.99,2.27z"/>
</svg>
