<?xml version="1.0" encoding="utf-8"?>
<!-- Generator: Adobe Illustrator 21.0.0, SVG Export Plug-In . SVG Version: 6.00 Build 0)  -->
<svg version="1.1" id="Layer_1" xmlns="http://www.w3.org/2000/svg" xmlns:xlink="http://www.w3.org/1999/xlink" x="0px" y="0px"
	 width="64px" height="64px" viewBox="0 0 64 64" style="enable-background:new 0 0 64 64;" xml:space="preserve">
<style type="text/css">
	.st0{fill:#A3A3A3;}
	.st1{fill:#FFFFFF;}
	.st2{fill:#800080;}
	.st3{fill:#99A8AE;}
	.st4{fill:#6E8189;}
</style>
<path d="M4,4.25c0,4.13,0,6.96,0,11.09c19.33,7.81,38.67-7.81,58,0c0-6.8,0-4.28,0-11.09C42.67-3.55,23.33,12.06,4,4.25z"/>
<path class="st0" d="M4,13.13c0,4.13,0,6.96,0,11.09c19.33,7.81,38.67-7.81,58,0c0-4.13,0-6.96,0-11.09
	C42.67,5.32,23.33,20.94,4,13.13z"/>
<path class="st1" d="M4,22c0,4.13,0,6.96,0,11.09c19.33,7.81,38.67-7.81,58,0c0-6.8,0-4.28,0-11.09C42.67,14.19,23.33,29.81,4,22z"
	/>
<path class="st2" d="M4,30.87c0,3.17,0,5.8,0,8.87c19.33,7.81,38.67-7.81,58,0c0-8.6,0-0.66,0-8.87C42.67,23.06,23.33,38.68,4,30.87
	z"/>
<path class="st3" d="M2,4.12V62l4,0V4.12C6,1.29,2,1.29,2,4.12z"/>
<path class="st4" d="M2.99,2.27c0.57,0.32,1,0.91,1,1.82L4,61.97l2,0V4.09C6,2.18,4.18,1.6,2.99,2.27z"/>
</svg>
