<?xml version="1.0" encoding="utf-8"?>
<!-- Generator: Adobe Illustrator 21.0.0, SVG Export Plug-In . SVG Version: 6.00 Build 0)  -->
<svg version="1.1" id="Layer_1" xmlns="http://www.w3.org/2000/svg" xmlns:xlink="http://www.w3.org/1999/xlink" x="0px" y="0px"
	 width="64px" height="64px" viewBox="0 0 64 64" style="enable-background:new 0 0 64 64;" xml:space="preserve">
<style type="text/css">
	.st0{fill:#0033AB;}
	.st1{fill:#744D98;}
	.st2{fill:#D9006F;}
	.st3{fill:#99A8AE;}
	.st4{fill:#6E8189;}
</style>
<path class="st0" d="M4,23.61c19.33,7.81,38.67-7.81,58,0c0,11.83,0,4.3,0,16.13c-19.33-7.81-38.67,7.81-58,0"/>
<path class="st1" d="M4,5.27c22.19,10.97,56.72,0,58,12.77v6.92c-19.33-7.81-38.67,7.81-58,0"/>
<path class="st2" d="M4,4.25c19.33,7.81,38.67-7.81,58,0c0,4.93,0,8.86,0,13.79c-19.33-7.81-38.67,7.81-58,0"/>
<path class="st3" d="M2,4.12V62l4,0V4.12C6,1.29,2,1.29,2,4.12z"/>
<path class="st4" d="M2.99,2.27c0.57,0.32,1,0.91,1,1.82L4,61.97l2,0V4.09C6,2.18,4.18,1.6,2.99,2.27z"/>
</svg>
