<?xml version="1.0" encoding="utf-8"?>
<!-- Generator: Adobe Illustrator 21.0.0, SVG Export Plug-In . SVG Version: 6.00 Build 0)  -->
<svg version="1.1" id="Layer_1" xmlns="http://www.w3.org/2000/svg" xmlns:xlink="http://www.w3.org/1999/xlink" x="0px" y="0px"
	 width="64px" height="64px" viewBox="0 0 64 64" style="enable-background:new 0 0 64 64;" xml:space="preserve">
<style type="text/css">
	.st0{fill:#D2D2D2;}
	.st1{fill:#6E0070;}
	.st2{fill:#FFFFFF;}
	.st3{fill:#99A8AE;}
	.st4{fill:#6E8189;}
</style>
<path class="st0" d="M5,22.61c19.33,7.81,38.67-7.81,58,0c0,11.83,0,5.3,0,17.13c-19.33-7.81-38.67,7.81-58,0"/>
<path class="st1" d="M5,5.27c22.19,10.97,45.08,0.85,58,13.77v5.92c-19.33-7.81-38.67,7.81-58,0"/>
<path class="st2" d="M5,4.25c19.33,7.81,38.67-7.81,58,0c0,4.93,0,9.86,0,14.79c-19.33-7.81-38.67,7.81-58,0"/>
<path d="M7,4.98c0,0,6.17,9.12,20.18,18.32c0,0-10.37,11.69-20.18,17.17c0,0-2-13.37-2-17.86C5,12.07,7,4.98,7,4.98z"/>
<path class="st3" d="M3,4.12V62l4,0V4.12C7,1.3,3,1.29,3,4.12z"/>
<path class="st4" d="M4,2.27c0.57,0.32,1,0.91,1,1.82L5,61.97l2,0V4.09C7,2.18,5.18,1.6,4,2.27z"/>
</svg>
