<?xml version="1.0" encoding="utf-8"?>
<!-- Generator: Adobe Illustrator 21.0.0, SVG Export Plug-In . SVG Version: 6.00 Build 0)  -->
<svg version="1.1" id="Layer_1" xmlns="http://www.w3.org/2000/svg" xmlns:xlink="http://www.w3.org/1999/xlink" x="0px" y="0px"
	 width="64px" height="64px" viewBox="0 0 64 64" style="enable-background:new 0 0 64 64;" xml:space="preserve">
<style type="text/css">
	.st0{fill:#FFD800;}
	.st1{fill:#7902AA;}
	.st2{fill:#99A8AE;}
	.st3{fill:#6E8189;}
</style>
<path class="st0" d="M4,4.23c19.33,7.72,38.67-7.72,58,0c0,11.85,0,23.69,0,35.54c-19.33-7.72-38.67,7.72-58,0
	C4,27.92,4,16.08,4,4.23z"/>
<path class="st1" d="M34.95,10.92c-6.11,0-11.96,4.97-13.04,11.08c-1.08,6.11,3.02,11.08,9.13,11.08c6.11,0,11.96-4.97,13.04-11.08
	C45.16,15.89,41.07,10.92,34.95,10.92z M31.61,29.86c-4.34,0-7.24-3.53-6.48-7.86c0.76-4.34,4.91-7.86,9.25-7.86
	s7.24,3.53,6.48,7.86S35.95,29.86,31.61,29.86z"/>
<path class="st2" d="M2,4.12V62l4,0V4.12C6,1.3,2,1.29,2,4.12z"/>
<path class="st3" d="M2.99,2.27c0.57,0.32,1,0.91,1,1.82L4,61.97l2,0V4.09C6,2.18,4.18,1.6,2.99,2.27z"/>
</svg>
