<?xml version="1.0" encoding="utf-8"?>
<!-- Generator: Adobe Illustrator 21.0.0, SVG Export Plug-In . SVG Version: 6.00 Build 0)  -->
<svg version="1.1" id="Layer_1" xmlns="http://www.w3.org/2000/svg" xmlns:xlink="http://www.w3.org/1999/xlink" x="0px" y="0px"
	 width="64px" height="64px" viewBox="0 0 64 64" style="enable-background:new 0 0 64 64;" xml:space="preserve">
<style type="text/css">
	.st0{fill:#FF148C;}
	.st1{fill:#FFDA00;}
	.st2{fill:#05AEFF;}
	.st3{fill:#99A8AE;}
	.st4{fill:#6E8189;}
</style>
<path class="st0" d="M4,4.38c0,4.56,0,8.17,0,12.73c19.33,8.23,38.67-8.22,58,0c0-4.56,0-8.16,0-12.73C42.67-3.85,23.33,12.6,4,4.38
	z"/>
<path class="st1" d="M4,16.13c0,4.52,0,8.15,0,12.73c19.33,8.23,38.67-8.23,58,0c0-7.71,0-4.93,0-12.73
	C42.67,7.9,23.33,24.35,4,16.13z"/>
<path class="st2" d="M4,27.88c0,2.37,0,9.38,0,11.75c19.33,8.23,38.67-8.23,58,0c0-5.33,0-6.43,0-11.75
	C42.67,19.65,23.33,36.1,4,27.88z"/>
<path class="st3" d="M2,4.12V62l4,0V4.12C6,1.3,2,1.29,2,4.12z"/>
<path class="st4" d="M2.99,2.27c0.57,0.32,1,0.91,1,1.82L4,61.97l2,0V4.09C6,2.18,4.18,1.6,2.99,2.27z"/>
</svg>
