<?xml version="1.0" encoding="utf-8"?>
<!-- Generator: Adobe Illustrator 21.0.0, SVG Export Plug-In . SVG Version: 6.00 Build 0)  -->
<svg version="1.1" id="Layer_1" xmlns="http://www.w3.org/2000/svg" xmlns:xlink="http://www.w3.org/1999/xlink" x="0px" y="0px"
	 width="64px" height="64px" viewBox="0 0 64 64" style="enable-background:new 0 0 64 64;" xml:space="preserve">
<style type="text/css">
	.st0{fill:#784F17;}
	.st1{fill:#E40303;}
	.st2{fill:#FF8C00;}
	.st3{fill:#FFED00;}
	.st4{fill:#008026;}
	.st5{fill:#004DFF;}
	.st6{fill:#750787;}
	.st7{fill:#99A8AE;}
	.st8{fill:#6E8189;}
</style>
<path d="M62,10.87c-19.33-7.62-38.67,7.62-58,0C4,8.65,4,6.42,4,4.2c19.33,7.62,38.67-7.62,58,0C62,6.42,62,8.65,62,10.87z"/>
<path class="st0" d="M62,15.32c-19.33-7.62-38.67,7.62-58,0c0-2.23,0-4.45,0-6.68c19.33,7.62,38.67-7.62,58,0
	C62,10.87,62,13.1,62,15.32z"/>
<path class="st1" d="M62,19.77c-19.33-7.62-38.67,7.62-58,0c0-2.23,0-4.45,0-6.68c19.33,7.62,38.67-7.62,58,0
	C62,15.32,62,17.55,62,19.77z"/>
<path class="st2" d="M62,24.23c-19.33-7.62-38.67,7.62-58,0c0-2.23,0-4.45,0-6.68c19.33,7.62,38.67-7.62,58,0
	C62,19.77,62,22,62,24.23z"/>
<path class="st3" d="M62,28.68c-19.33-7.62-38.67,7.62-58,0c0-2.23,0-4.45,0-6.68c19.33,7.62,38.67-7.62,58,0
	C62,24.23,62,26.45,62,28.68z"/>
<path class="st4" d="M62,33.13c-19.33-7.62-38.67,7.62-58,0c0-2.23,0-4.45,0-6.68c19.33,7.62,38.67-7.62,58,0
	C62,28.68,62,30.9,62,33.13z"/>
<path class="st5" d="M62,37.58c-19.33-7.62-38.67,7.62-58,0c0-2.23,0-4.45,0-6.68c19.33,7.62,38.67-7.62,58,0
	C62,33.13,62,35.35,62,37.58z"/>
<path class="st6" d="M62,39.8c-19.33-7.62-38.67,7.62-58,0c0-1.48,0-2.97,0-4.45c19.33,7.62,38.67-7.62,58,0
	C62,36.83,62,38.32,62,39.8z"/>
<path class="st7" d="M2,4.12V62l4,0V4.12C6,1.29,2,1.29,2,4.12z"/>
<path class="st8" d="M2.99,2.27c0.57,0.32,1,0.91,1,1.82L4,61.97l2,0V4.09C6,2.18,4.18,1.6,2.99,2.27z"/>
</svg>
