<?xml version="1.0" encoding="utf-8"?>
<!-- Generator: Adobe Illustrator 21.0.0, SVG Export Plug-In . SVG Version: 6.00 Build 0)  -->
<svg version="1.1" id="Layer_1" xmlns="http://www.w3.org/2000/svg" xmlns:xlink="http://www.w3.org/1999/xlink" x="0px" y="0px"
	 width="64px" height="64px" viewBox="0 0 64 64" style="enable-background:new 0 0 64 64;" xml:space="preserve">
<style type="text/css">
	.st0{fill:#99A8AE;}
	.st1{fill:#0000FF;}
	.st2{fill:#FF0000;}
	.st3{fill:#6E8189;}
	.st4{fill:#FFFF00;}
</style>
<path class="st0" d="M2,4.12V62l4,0V4.12C6,1.3,2,1.29,2,4.12z"/>
<path class="st1" d="M4,4.41c19.33,8.34,38.67-8.34,58,0c0,3.91,0,7.82,0,11.73c-19.33-8.34-38.67,8.34-58,0C4,12.23,4,8.32,4,4.41z
	"/>
<path class="st2" d="M4,16.14c19.33,8.34,38.67-8.34,58,0c0,3.91,0,7.82,0,11.73c-19.33-8.34-38.67,8.34-58,0
	C4,23.95,4,20.05,4,16.14z"/>
<path d="M4,27.86c19.33,8.34,38.67-8.34,58,0c0,3.91,0,7.82,0,11.73c-19.33-8.34-38.67,8.34-58,0C4,35.68,4,31.77,4,27.86z"/>
<path class="st3" d="M3,2.27c0.57,0.32,1,0.91,1,1.82L4,61.97l2,0V4.09C6,2.18,4.18,1.6,3,2.27z"/>
<path class="st4" d="M28.88,26.49c0-0.54,0.16-1.02,0.31-1.6l1.24-4.54c0.1-0.39,0.06-0.57-0.39-0.49c-1.36,0.24-2.04,0.73-2.54,2.3
	c-0.04,0.11-0.04,0.3-0.21,0.32C27.12,22.51,27,22.27,27,21.75c0-1.09,0.78-2.8,3.36-3.25c0.91-0.16,1.88-0.27,2.78-0.37
	c0.7-0.08,1.34-0.15,1.92-0.26c0.56-0.1,0.95-0.35,1.24-0.55c0.23-0.18,0.35-0.31,0.45-0.33c0.21-0.04,0.25,0.12,0.25,0.57
	c0,0.58-0.43,1.39-0.74,1.45c-0.54,0.09-1.18,0.12-1.44,0.17c-0.43,0.08-0.6,0.17-0.68,0.74c-0.08,0.59-0.47,3.07-0.47,3.87
	c0,0.49,0.35,0.64,0.74,0.59c0.23-0.02,0.47-0.1,0.68-0.22c0.16-0.09,0.27-0.17,0.31-0.18c0.19-0.03,0.21,0.07,0.21,0.27
	c0,0.68-0.45,1.79-1.44,1.96c-0.68,0.12-1.28-0.43-1.28-1.75c0-0.99,0.52-3.92,0.52-4.56c0-0.25-0.12-0.47-0.31-0.44l-1.55,0.21
	c-0.27,0.03-0.41,0.18-0.49,0.5c-0.62,2.44-0.78,3.95-0.82,4.92c-0.02,0.66,0.04,1.06,0.08,1.3c0.06,0.34,0.08,0.52-0.21,0.57
	C29.82,27.04,28.88,26.8,28.88,26.49L28.88,26.49z"/>
</svg>
