<?xml version="1.0" encoding="utf-8"?>
<!-- Generator: Adobe Illustrator 21.0.0, SVG Export Plug-In . SVG Version: 6.00 Build 0)  -->
<svg version="1.1" id="Layer_1" xmlns="http://www.w3.org/2000/svg" xmlns:xlink="http://www.w3.org/1999/xlink" x="0px" y="0px"
	 width="64px" height="64px" viewBox="0 0 64 64" style="enable-background:new 0 0 64 64;" xml:space="preserve">
<style type="text/css">
	.st0{fill:#E81C27;}
	.st1{fill:#EA8800;}
	.st2{fill:#FFE12C;}
	.st3{fill:#7AB51D;}
	.st4{fill:#006DAE;}
	.st5{fill:#7D0C7A;}
	.st6{fill:#99A8AE;}
	.st7{fill:#6E8189;}
</style>
<path class="st0" d="M62,11.23c-19.33-8.23-38.67,8.23-58,0c0-1.96,0-4.9,0-6.85c19.33,8.23,38.67-8.23,58,0
	C62,6.33,62,9.27,62,11.23z"/>
<path class="st1" d="M62,17.1c-19.33-8.23-38.67,8.23-58,0c0-1.96,0-4.9,0-6.85c19.33,8.23,38.67-8.23,58,0
	C62,12.21,62,15.15,62,17.1z"/>
<path class="st2" d="M62,22.98c-19.33-8.23-38.67,8.23-58,0c0-1.96,0-4.9,0-6.85c19.33,8.23,38.67-8.23,58,0
	C62,18.08,62,21.02,62,22.98z"/>
<path class="st3" d="M62,28.85c-19.33-8.23-38.67,8.23-58,0c0-1.96,0-4.9,0-6.85c19.33,8.23,38.67-8.23,58,0
	C62,23.96,62,26.9,62,28.85z"/>
<path class="st4" d="M62,34.73c-19.33-8.23-38.67,8.23-58,0c0-1.96,0-4.9,0-6.85c19.33,8.23,38.67-8.23,58,0
	C62,29.83,62,32.77,62,34.73z"/>
<path class="st5" d="M62,39.63c-19.33-8.23-38.67,8.23-58,0c0-1.96,0-3.92,0-5.88c19.33,8.23,38.67-8.23,58,0
	C62,35.71,62,37.67,62,39.63z"/>
<path class="st6" d="M2,4.12V62l4,0V4.12C6,1.29,2,1.29,2,4.12z"/>
<path class="st7" d="M2.99,2.27c0.57,0.32,1,0.91,1,1.82L4,61.97l2,0V4.09C6,2.18,4.18,1.6,2.99,2.27z"/>
</svg>
