<svg width="567" height="567" viewBox="0 0 567 567" fill="none" xmlns="http://www.w3.org/2000/svg">
<path d="M44.2969 37.6522C215.549 106.844 386.889 -31.5396 558.141 37.6522C558.141 81.3289 558.141 47.3233 558.141 91C386.889 21.8083 215.549 160.192 44.2969 91" fill="#FF1D26"/>
<path d="M44.2969 89.9739C215.549 159.166 386.889 20.7822 558.141 89.9739C558.141 133.651 558.141 98.6451 558.141 142.322C386.889 73.1301 215.549 211.513 44.2969 142.322" fill="#FE931F"/>
<path d="M44.2969 141.974C215.549 211.166 386.889 72.7822 558.141 141.974C558.141 185.651 558.141 150.645 558.141 194.322C386.889 125.13 215.549 263.513 44.2969 194.322" fill="#FFFF00"/>
<path d="M44.2969 245.974C215.549 315.166 386.889 176.782 558.141 245.974C558.141 289.651 558.141 254.645 558.141 298.322C386.889 229.13 215.549 367.513 44.2969 298.322" fill="#011898"/>
<path d="M44.2969 297.974C215.549 367.166 386.889 228.782 558.141 297.974C558.141 341.651 558.141 306.645 558.141 350.322C386.889 281.13 215.549 419.513 44.2969 350.322" fill="#750087"/>
<path d="M44.2969 193.974C215.549 263.166 386.889 124.782 558.141 193.974C558.141 237.651 558.141 202.645 558.141 246.322C386.889 177.13 215.549 315.513 44.2969 246.322" fill="#06BD01"/>
<path d="M142.719 57C142.719 57 201 119 311 192C311 192 243 312 134.719 370C134.719 370 89 370 60.0001 354C54.9441 311.173 60 214.362 60 185C60 134.439 55.2359 65.0663 60 44C108 57 142.719 57 142.719 57Z" fill="#010101"/>
<path d="M97.9999 52C97.9999 52 151 117 270.501 201.423C270.501 201.423 182 324 91 365C91 365 58.0001 359 63 354C61.5193 312.108 58 220.874 58 194C58 143.352 54.4998 65.973 58 43C80 49 97.9999 52 97.9999 52Z" fill="#603814"/>
<path d="M62.0156 44.1195C62.0156 44.1195 106.678 124.917 230.798 206.423C230.798 206.423 146.926 308.989 60.0156 357.539C60.0156 357.539 44.2969 240.089 44.2969 200.31C44.2969 106.932 62.0156 44.1195 62.0156 44.1195Z" fill="#75D4EA"/>
<path d="M57 79C57 79 95 136 191 212C191 212 119 294 46 339C46 339 46 240.779 46 201C46 107.622 57 79 57 79Z" fill="#FDAFC5"/>
<path d="M54 120C54 120 69 153 146 215C146 215 103 267 54 297C54 297 43 247.779 43 208C43 114.622 54 120 54 120Z" fill="#FBF7F4"/>
<path d="M26.5781 36.5004V549.281H62.0156V36.5004C62.0156 11.517 26.5781 11.4284 26.5781 36.5004Z" fill="#99A8AE"/>
<path d="M35.4375 20.1109C40.4873 22.9459 44.2969 28.173 44.2969 36.235V549.016H62.0156V36.235C62.0156 19.3136 45.8916 14.1752 35.4375 20.1109Z" fill="#6E8189"/>
</svg>
