<svg width="64" height="64" viewBox="0 0 64 64" fill="none" xmlns="http://www.w3.org/2000/svg">
<path d="M5 4.24998C24.33 12.06 43.67 -3.56003 63 4.24998C63 9.17998 63 5.3416 63 10.2716C43.67 2.4616 24.33 18.0816 5 10.2716" fill="#FF1D26"/>
<path d="M5 10.1558C24.33 17.9658 43.67 2.34579 63 10.1558C63 15.0858 63 11.1346 63 16.0646C43.67 8.25455 24.33 23.8746 5 16.0646" fill="#FE931F"/>
<path d="M5 16.0253C24.33 23.8353 43.67 8.2153 63 16.0253C63 20.9553 63 17.0041 63 21.9341C43.67 14.1241 24.33 29.7441 5 21.9341" fill="#FFFF00"/>
<path d="M5 27.7642C24.33 35.5742 43.67 19.9542 63 27.7642C63 32.6942 63 28.7429 63 33.6729C43.67 25.8629 24.33 41.4829 5 33.6729" fill="#011898"/>
<path d="M5 33.6338C24.33 41.4438 43.67 25.8238 63 33.6338C63 38.5638 63 34.6125 63 39.5425C43.67 31.7325 24.33 47.3525 5 39.5425" fill="#750087"/>
<path d="M5 21.8948C24.33 29.7048 43.67 14.0848 63 21.8948C63 26.8248 63 22.8735 63 27.8035C43.67 19.9935 24.33 35.6135 5 27.8035" fill="#06BD01"/>
<path d="M16.1093 6.43386C16.1093 6.43386 22.6878 13.4321 35.104 21.672C35.104 21.672 27.4285 35.2169 15.2063 41.7637C15.2063 41.7637 10.0458 41.7637 6.77244 39.9577C6.20175 35.1236 6.77244 24.1961 6.77244 20.8818C6.77244 15.1748 6.23469 7.34434 6.77244 4.96649C12.1904 6.43386 16.1093 6.43386 16.1093 6.43386Z" fill="#010101"/>
<path d="M11.0617 5.86951C11.0617 5.86951 17.044 13.2064 30.5327 22.7356C30.5327 22.7356 20.5432 36.5714 10.2716 41.1993C10.2716 41.1993 6.5467 40.5221 7.11106 39.9577C6.94393 35.2291 6.54669 24.9311 6.54669 21.8977C6.54669 16.1809 6.1516 7.4467 6.54668 4.85364C9.02993 5.53089 11.0617 5.86951 11.0617 5.86951Z" fill="#603814"/>
<path d="M7 4.97998C7 4.97998 12.0413 14.1 26.0513 23.3C26.0513 23.3 16.5843 34.8771 6.77425 40.3571C6.77425 40.3571 5 27.1 5 22.61C5 12.07 7 4.97998 7 4.97998Z" fill="#75D4EA"/>
<path d="M6.43401 8.91711C6.43401 8.91711 10.7232 15.351 21.5592 23.9295C21.5592 23.9295 13.4322 33.1852 5.19238 38.2646C5.19238 38.2646 5.19238 27.1778 5.19238 22.6878C5.19238 12.1478 6.43401 8.91711 6.43401 8.91711Z" fill="#FDAFC5"/>
<path d="M6.09538 13.545C6.09538 13.545 7.7885 17.2699 16.4799 24.2681C16.4799 24.2681 11.6262 30.1376 6.09538 33.5238C6.09538 33.5238 4.85376 27.968 4.85376 23.478C4.85376 12.938 6.09538 13.545 6.09538 13.545Z" fill="#FBF7F4"/>
<path d="M3 4.11997V62H7V4.11997C7 1.29997 3 1.28997 3 4.11997Z" fill="#99A8AE"/>
<path d="M4 2.27002C4.57 2.59002 5 3.18002 5 4.09002V61.97H7V4.09002C7 2.18002 5.18 1.60002 4 2.27002Z" fill="#6E8189"/>
</svg>
